<svg width="80" height="80" viewBox="0 0 80 80" fill="none" xmlns="http://www.w3.org/2000/svg">
<g clip-path="url(#clip0_76_27)">
<g clip-path="url(#clip1_76_27)">
<rect x="8" y="8" width="64" height="64" rx="32" fill="white"/>
<path d="M40 8C35.7977 8 31.6365 8.82175 27.7541 10.4183C23.8717 12.0149 20.3441 14.355 17.3726 17.3051C11.3714 23.2631 8 31.3438 8 39.7696C8 53.8118 17.184 65.7254 29.888 69.9508C31.488 70.2049 32 69.2201 32 68.3623V62.9932C23.136 64.8994 21.248 58.7361 21.248 58.7361C19.776 55.0508 17.696 54.066 17.696 54.066C14.784 52.0963 17.92 52.1598 17.92 52.1598C21.12 52.3822 22.816 55.4321 22.816 55.4321C25.6 60.2611 30.304 58.8314 32.128 58.0689C32.416 56.0039 33.248 54.6061 34.144 53.8118C27.04 53.0176 19.584 50.2854 19.584 38.1812C19.584 34.6547 20.8 31.8272 22.88 29.5716C22.56 28.7773 21.44 25.4733 23.2 21.1844C23.2 21.1844 25.888 20.3266 32 24.4249C34.528 23.726 37.28 23.3765 40 23.3765C42.72 23.3765 45.472 23.726 48 24.4249C54.112 20.3266 56.8 21.1844 56.8 21.1844C58.56 25.4733 57.44 28.7773 57.12 29.5716C59.2 31.8272 60.416 34.6547 60.416 38.1812C60.416 50.3172 52.928 52.9858 45.792 53.78C46.944 54.7649 48 56.7029 48 59.6574V68.3623C48 69.2201 48.512 70.2367 50.144 69.9508C62.848 65.6937 72 53.8118 72 39.7696C72 35.5976 71.1723 31.4664 69.5641 27.6119C67.956 23.7575 65.5989 20.2552 62.6274 17.3051C59.6559 14.355 56.1283 12.0149 52.2459 10.4183C48.3635 8.82175 44.2023 8 40 8Z" fill="#1E293B"/>
</g>
<rect x="4" y="4" width="72" height="72" rx="36" stroke="white" stroke-width="8"/>
</g>
<defs>
<clipPath id="clip0_76_27">
<rect width="80" height="80" fill="white"/>
</clipPath>
<clipPath id="clip1_76_27">
<rect x="8" y="8" width="64" height="64" rx="32" fill="white"/>
</clipPath>
</defs>
</svg>
