<svg width="101" height="101" viewBox="0 0 101 101" fill="none" xmlns="http://www.w3.org/2000/svg">
<path d="M65.8862 32.8504L60.7629 17.0824C57.47 6.94803 43.1325 6.94797 39.8396 17.0824L34.7163 32.8504H18.1369C7.48094 32.8504 3.05034 46.4862 11.6712 52.7496L25.0843 62.4948L19.961 78.2628C16.6681 88.3972 28.2673 96.8246 36.8882 90.5611L50.3013 80.816L63.7143 90.5611C72.3352 96.8245 83.9345 88.3972 80.6416 78.2628L75.5183 62.4948L88.9313 52.7496C97.5521 46.4862 93.1217 32.8504 82.4657 32.8504H65.8862Z" fill="#FFB72A" stroke="white" stroke-width="12"/>
<path d="M63.2576 34.4685L57.9097 18.0095C55.5149 10.639 45.0876 10.639 42.6928 18.0095L37.345 34.4685C37.0772 35.2925 36.3093 35.8504 35.4429 35.8504H18.1369C10.3871 35.8504 7.16485 45.7673 13.4346 50.3225L27.4354 60.4948C28.1364 61.0041 28.4297 61.9068 28.162 62.7308L22.8141 79.1898C20.4193 86.5603 28.8551 92.6893 35.1248 88.1341L49.1257 77.9619C49.8267 77.4526 50.7759 77.4526 51.4768 77.9619L65.4777 88.1341C71.7474 92.6893 80.1832 86.5603 77.7884 79.1898L72.4406 62.7308C72.1728 61.9068 72.4661 61.0041 73.1671 60.4948L87.168 50.3226C93.4377 45.7674 90.2155 35.8504 82.4657 35.8504H65.1597C64.2932 35.8504 63.5253 35.2925 63.2576 34.4685Z" fill="#FCD34D" stroke="#7C2D12" stroke-width="6"/>
<path d="M49.3502 36.2283C49.6496 35.307 50.953 35.307 51.2523 36.2283L54.7915 47.1209C54.9254 47.533 55.3094 47.8119 55.7426 47.8119H67.1958C68.1645 47.8119 68.5673 49.0515 67.7836 49.6209L58.5178 56.3529C58.1673 56.6076 58.0206 57.0589 58.1545 57.471L61.6937 68.3636C61.9931 69.2849 60.9386 70.051 60.1549 69.4816L50.8891 62.7496C50.5386 62.495 50.064 62.495 49.7135 62.7496L40.4477 69.4816C39.664 70.051 38.6095 69.2849 38.9088 68.3636L42.4481 57.471C42.5819 57.0589 42.4353 56.6076 42.0848 56.3529L32.819 49.6209C32.0353 49.0515 32.438 47.8119 33.4068 47.8119H44.8599C45.2932 47.8119 45.6771 47.533 45.811 47.1209L49.3502 36.2283Z" fill="#F59E0B"/>
</svg>
